<svg width="36" height="35" viewBox="0 0 36 35" fill="none" xmlns="http://www.w3.org/2000/svg">
<path d="M14.2407 1.45801H21.5972C28.4432 1.45806 33.9927 7.0085 33.9927 13.8545V21.1455C33.9927 27.9915 28.4431 33.5419 21.5972 33.542H14.2407C7.39469 33.542 1.84424 27.9915 1.84424 21.1455V13.8545C1.84424 7.00846 7.39469 1.45801 14.2407 1.45801Z" fill="#FF9900"/>
<path d="M14.2407 1.45801H21.5972C28.4432 1.45806 33.9927 7.0085 33.9927 13.8545V21.1455C33.9927 27.9915 28.4431 33.5419 21.5972 33.542H14.2407C7.39469 33.542 1.84424 27.9915 1.84424 21.1455V13.8545C1.84424 7.00846 7.39469 1.45801 14.2407 1.45801Z" stroke="white" stroke-width="2.91667"/>
<path d="M14.2407 1.45801H21.5972C28.4432 1.45806 33.9927 7.0085 33.9927 13.8545V21.1455C33.9927 27.9915 28.4431 33.5419 21.5972 33.542H14.2407C7.39469 33.542 1.84424 27.9915 1.84424 21.1455V13.8545C1.84424 7.00846 7.39469 1.45801 14.2407 1.45801Z" stroke="#FF9900" stroke-width="2.91667"/>
<path d="M26.1999 12.2393C25.8869 11.9202 25.3794 11.9202 25.0664 12.2393L15.4641 22.0277L11.7731 18.2653C11.4602 17.9462 10.9527 17.9462 10.6397 18.2653C10.3267 18.5843 10.3267 19.1016 10.6397 19.4207L14.8974 23.7608C15.2103 24.0798 15.7181 24.0796 16.0308 23.7608L26.1999 13.3947C26.5129 13.0757 26.5129 12.5584 26.1999 12.2393Z" fill="white"/>
</svg>
